<svg width="261" height="34" viewBox="0 0 261 34" fill="none" xmlns="http://www.w3.org/2000/svg">
<path d="M30.4694 18.6507C30.0909 16.96 28.3205 15.8671 28.2509 15.8244C27.7687 15.4955 27.2992 15.1486 26.8433 14.7842C29.5937 14.3308 29.3554 10.9629 28.1228 8.90155C25.5347 3.86036 18.4353 0.819406 12.9449 2.90136C7.8136 4.89053 6.79502 9.88796 6.59205 11.9415C6.54513 13.0338 5.64412 14.3329 5.1148 15.2645C3.75776 17.9849 7.16829 19.2191 9.40314 18.6829C11.2584 18.908 13.1401 18.6337 14.854 17.8884C14.7233 19.7717 14.1806 21.6033 13.2644 23.2538C12.9545 23.7667 12.6938 24.3077 12.4857 24.8697C11.958 26.3844 11.4086 28.982 13.1047 30.5552C12.9011 29.5024 12.9256 28.4182 13.1767 27.3758C13.4278 26.3333 13.8996 25.3568 14.5603 24.5123C16.1657 22.6301 16.5126 19.3335 16.5874 18.0054C16.6781 16.4337 16.5031 14.8579 16.0697 13.3444C16.5914 12.9165 17.1441 12.5278 17.7231 12.1813C18.3315 12.793 18.785 13.5411 19.0458 14.3635C18.5235 14.561 18.0155 14.7944 17.5254 15.062C17.5733 15.4142 17.616 15.798 17.6429 16.214C18.1907 15.8935 18.7632 15.6171 19.3548 15.3873C19.7134 16.9684 19.7605 18.6043 19.4934 20.2034C19.2428 21.7895 19.4137 23.4137 19.989 24.913C20.7071 26.7898 23.0025 28.6171 24.9337 27.6281C25.1967 27.4225 25.416 27.1666 25.5789 26.8753C25.7419 26.584 25.8451 26.2632 25.8827 25.9315C25.8839 25.917 25.8805 25.9025 25.8729 25.8901C25.8653 25.8777 25.854 25.868 25.8405 25.8625C21.8453 24.4385 21.7973 21.4513 21.7973 21.4249C21.9682 19.2139 21.7609 16.9899 21.1842 14.8485C21.7749 14.7167 22.3766 14.6399 22.9815 14.6192C22.681 14.3039 22.4063 13.9651 22.1601 13.6059C21.7136 13.6561 21.2703 13.7309 20.832 13.8299C20.4963 12.9281 19.9831 12.1029 19.3226 11.4032C20.228 11.0381 21.1898 10.8324 22.1653 10.7953C22.2289 11.3318 22.3897 11.8522 22.6398 12.3311C23.5182 14.1062 25.2427 15.2117 27.0136 16.3901C27.8307 16.9613 28.4903 17.7297 28.9313 18.6238C29.3723 19.518 29.5804 20.509 29.5363 21.5051C29.9322 21.1559 30.2276 20.7071 30.3917 20.2053C30.5558 19.7035 30.5826 19.1664 30.4694 18.6507ZM9.90926 10.4104C9.87039 10.5462 9.77918 10.661 9.65569 10.7295C9.5322 10.798 9.38654 10.8147 9.25077 10.7758C9.115 10.7369 9.00024 10.6457 8.93172 10.5222C8.8632 10.3987 8.84655 10.2531 8.88542 10.1173C9.18495 8.90006 9.77241 7.77255 10.5984 6.8296C11.4244 5.88665 12.4647 5.15583 13.6319 4.69863C13.7635 4.64696 13.9102 4.64968 14.0398 4.70618C14.1693 4.76269 14.2711 4.86835 14.3228 4.99993C14.3745 5.1315 14.3718 5.27821 14.3152 5.40778C14.2587 5.53735 14.1531 5.63917 14.0215 5.69084C13.0042 6.0843 12.098 6.71975 11.3815 7.54219C10.665 8.36464 10.1596 9.34877 9.90926 10.4104ZM14.923 16.7148C13.9549 17.1638 12.9246 17.4642 11.8668 17.6058C13.0372 16.8066 13.808 15.4216 14.8318 14.4747C14.9153 15.2185 14.9456 15.9673 14.9225 16.7153L14.923 16.7148ZM26.4911 14.5016C24.5388 12.8588 23.931 11.6425 23.7812 10.8744C25.443 11.1759 27.3821 12.2673 26.4911 14.5016Z" fill="#FEAB06"/>
<path d="M27.2058 18.0008C27.1575 17.9376 27.1039 17.8787 27.0455 17.8247C27.2216 18.7262 26.9923 20.1339 25.0933 21.889C25.084 21.8961 25.0766 21.9055 25.0719 21.9162C25.0672 21.927 25.0653 21.9387 25.0664 21.9504C25.0674 21.9621 25.0714 21.9733 25.078 21.983C25.0845 21.9927 25.0934 22.0007 25.1038 22.006C25.6 22.3039 26.1594 22.4809 26.7366 22.5227C27.3139 22.5644 27.8929 22.4698 28.4268 22.2464C28.4141 22.0938 28.4141 21.9404 28.4268 21.7878C28.5255 21.1052 28.4667 20.4091 28.255 19.7527C28.0433 19.0963 27.6847 18.4971 27.2058 18.0008ZM16.3463 29.3184C15.827 29.0957 15.3793 28.7337 15.0527 28.2726C14.7262 27.8114 14.5334 27.2689 14.4958 26.7051C13.9267 28.1986 13.9002 29.8445 14.4209 31.3556C14.9246 31.554 15.4518 31.6867 15.9894 31.7505C17.5726 31.936 17.6691 29.8414 16.3463 29.3184Z" fill="#FEAB06"/>
<path d="M55.0479 7.21533C55.6709 7.21017 56.3096 7.17412 56.9297 7.23877C57.5068 7.2989 58.0793 7.45626 58.5859 7.74463C59.2928 8.1472 59.8095 8.78237 60.0244 9.57178C60.4106 10.9911 59.8951 12.5945 59.1885 13.8267C58.0665 15.783 56.3399 16.7995 54.2139 17.3667C55.4676 18.5383 56.7052 19.7633 58.0566 20.8218C62.4485 24.2615 67.366 25.7347 72.8408 26.2925C73.9937 26.4033 75.1493 26.4798 76.3066 26.522C76.9573 26.5489 77.636 26.5304 78.2812 26.6108L78.3271 26.6167C74.5217 27.0851 70.5599 27.2711 66.7344 26.9888C62.3612 26.6042 58.4531 25.6674 54.6348 23.4331C52.9096 22.4237 51.2688 21.2638 49.5908 20.1792L39.8457 13.8149C42.6349 13.7961 45.4246 13.7928 48.2139 13.8052C49.7555 13.8129 51.3374 13.886 52.874 13.8003C53.1497 13.7849 53.4602 13.7623 53.7197 13.6636C54.2658 13.4558 54.7402 12.9977 54.9619 12.4556C55.0772 12.1735 55.1445 11.8215 55.0186 11.5317C55.0073 11.5061 54.9943 11.4809 54.9805 11.4565C54.9667 11.4324 54.9517 11.4089 54.9355 11.3862C54.9193 11.3634 54.9013 11.3408 54.8828 11.3198C54.8644 11.299 54.8446 11.2791 54.8242 11.2603C54.8037 11.2413 54.7821 11.2232 54.7598 11.2065C54.7374 11.1898 54.7143 11.1741 54.6904 11.1597C54.6664 11.1453 54.6415 11.1324 54.6162 11.1206C54.591 11.1087 54.5654 11.0975 54.5391 11.0884C54.0499 10.9188 49.2235 11.0661 48.2344 11.0698C47.9093 11.071 47.3484 11.1465 47.0488 11.0239C47.0278 11.0152 47.0073 11.0054 46.9863 10.9966C46.0855 10.6197 45.216 10.0859 44.3477 9.63428C42.7767 8.81253 41.1947 8.01245 39.6016 7.23486C40.426 7.26062 41.2552 7.23797 42.0801 7.23193L52.3213 7.22217L55.0479 7.21533ZM98.9443 8.54932C101.607 6.84818 104.227 7.24233 107.206 7.22217C106.623 9.55857 105.943 11.8803 105.319 14.2075C104.595 16.914 103.916 19.6386 103.14 22.3306L100.134 22.3208L98.791 22.313C98.9384 21.5919 99.1775 20.8701 99.3633 20.1558C98.4748 20.1467 97.5858 20.1442 96.6973 20.1499C97.4012 19.1501 98.1468 18.1767 98.8818 17.1997L100.216 17.2007C100.675 15.2765 101.301 13.3908 101.773 11.4683C101.546 11.5817 101.208 11.6976 101.025 11.8765C100.462 12.4302 100.032 13.2305 99.5684 13.8726C97.6203 16.5707 95.7418 19.3202 93.8213 22.0386L92.2559 24.2524C91.9369 24.7028 91.6284 25.1801 91.2637 25.5942C90.9216 25.9826 90.6161 26.2531 90.1279 26.439C89.8952 26.5276 89.6636 26.5838 89.417 26.6167C89.0074 26.6713 88.5721 26.6234 88.1592 26.6255C87.6972 26.6279 87.2107 26.6845 86.752 26.6294C86.5349 26.6032 86.3237 26.5505 86.126 26.4556C85.8641 26.3298 85.5926 26.1173 85.4482 25.8608C85.2041 25.4269 85.0482 24.9394 84.8721 24.4751L84.124 22.5288L81.5928 15.9429C81.3405 16.5631 81.1798 17.2676 80.9863 17.9106C80.5497 19.3587 80.126 20.8109 79.7139 22.2661L74.9668 22.2651C75.8063 19.1476 76.6659 16.0352 77.5469 12.9292C78.081 11.0408 78.6794 9.14235 79.1064 7.22705L84.168 7.22217L86.6426 14.1587C87.2288 11.8525 88.0016 9.57032 88.4971 7.24365C90.1297 7.22648 91.7628 7.22584 93.3955 7.2417L91.2246 15.2026C90.7225 17.0809 90.2708 18.9998 89.6777 20.8501C90.4878 19.7315 91.2436 18.5737 92.0176 17.4302L95.0322 13.0239C95.7214 12.0223 96.4958 10.6837 97.3291 9.83252C97.8072 9.34439 98.3698 8.91639 98.9443 8.54932ZM69.4473 6.91064C71.1429 6.75807 73.0378 7.14609 74.3994 8.2085C74.4709 8.26358 74.5417 8.32077 74.6104 8.37939C74.6788 8.43789 74.746 8.49822 74.8115 8.56006C74.8771 8.62205 74.9415 8.68623 75.0039 8.75146C75.0664 8.81676 75.1274 8.88427 75.1865 8.95264C75.2454 9.02083 75.3029 9.09055 75.3584 9.16162C75.414 9.23289 75.4685 9.30638 75.5205 9.38037C75.5723 9.45427 75.6228 9.52952 75.6709 9.60596C75.7191 9.68248 75.7653 9.76053 75.8096 9.83936C75.8538 9.91821 75.8954 9.99867 75.9355 10.0796C75.9758 10.1606 76.0147 10.2427 76.0508 10.3257C76.0869 10.4086 76.1204 10.493 76.1523 10.5776C76.1842 10.6622 76.2146 10.7475 76.2422 10.8335C76.2698 10.9196 76.2951 11.0068 76.3184 11.0942C76.3415 11.1817 76.363 11.2704 76.3818 11.3589C76.4006 11.4473 76.4164 11.5363 76.4307 11.6255C76.445 11.7148 76.458 11.805 76.4678 11.895C76.7432 14.2085 75.7269 16.6304 74.3193 18.4146C72.5094 20.7085 69.6555 22.4959 66.7344 22.8345C64.888 23.0049 62.9971 22.6463 61.5264 21.4585C60.3716 20.5258 59.6847 19.1382 59.541 17.6685C59.305 15.2521 60.4029 12.842 61.9121 11.02C63.7709 8.77629 66.4768 7.18387 69.3916 6.91748C69.4098 6.91509 69.429 6.91223 69.4473 6.91064ZM123.084 7.24072C120.496 9.841 117.967 12.5073 115.414 15.1431C116.511 17.5789 117.695 19.9855 118.848 22.3979H113.879C113.544 21.7769 113.21 21.1553 112.873 20.5356C112.16 19.2234 111.461 17.8845 110.673 16.6157C110.081 18.4777 109.615 20.4183 109.13 22.312C107.614 22.3176 106.099 22.3159 104.583 22.3062C105.338 19.642 106.021 16.9524 106.744 14.2788C107.376 11.9416 108.063 9.59775 108.618 7.2417L109.354 7.23193C110.637 7.22246 111.921 7.22243 113.204 7.23291C112.614 9.39363 112.038 11.5662 111.382 13.7075C112.096 12.8587 112.942 12.0932 113.729 11.3101L117.809 7.23877C119.564 7.19259 121.328 7.22864 123.084 7.24072ZM70.9551 11.5386C70.308 11.0876 69.4678 11.0029 68.7031 11.0864C68.6092 11.1029 68.5149 11.122 68.4219 11.1431C68.3287 11.1641 68.2355 11.1877 68.1436 11.2134C68.0516 11.239 67.9598 11.2673 67.8691 11.2974C67.7786 11.3274 67.6885 11.3596 67.5996 11.394C67.5106 11.4286 67.4222 11.4656 67.335 11.5044C67.2477 11.5433 67.1605 11.5844 67.0752 11.6274C66.9901 11.6704 66.9061 11.7161 66.8232 11.7632C66.7401 11.8103 66.6578 11.8594 66.5771 11.9106C66.4966 11.9618 66.4169 12.0148 66.3389 12.0698C66.2609 12.1248 66.1836 12.1819 66.1084 12.2407C66.0331 12.2996 65.959 12.3608 65.8867 12.4233C65.8144 12.4858 65.743 12.5499 65.6738 12.6157C65.6046 12.6817 65.5367 12.7496 65.4707 12.8188C65.4048 12.8881 65.3408 12.9594 65.2783 13.0317C65.2159 13.1041 65.1546 13.1781 65.0957 13.2534C65.0369 13.3287 64.9799 13.4058 64.9248 13.4839C64.2783 14.3906 63.8611 15.5379 64.0566 16.6616C64.1672 17.2968 64.507 17.8445 65.042 18.2065C65.753 18.6876 66.5609 18.7436 67.3887 18.6558C68.8953 18.4003 70.1702 17.5301 71.0469 16.2817C71.6796 15.3804 72.1006 14.2161 71.9062 13.105C71.7966 12.4783 71.4839 11.9073 70.9551 11.5386Z" fill="#FEAB06"/>
<rect x="128.145" y="7.19434" width="132.654" height="19.6113" rx="9.80566" fill="#0D0D0D" fill-opacity="0.4"/>
<path d="M143.056 22.019C142.97 22.019 142.917 21.976 142.898 21.8899L140.618 12.1387L140.604 12.0813C140.604 12.0144 140.647 11.9809 140.733 11.9809H141.88C141.975 11.9809 142.028 12.024 142.038 12.11L143.572 19.0506C143.581 19.0793 143.591 19.0936 143.601 19.0936C143.61 19.0936 143.62 19.0793 143.629 19.0506L145.02 12.11C145.039 12.024 145.092 11.9809 145.178 11.9809H146.225C146.32 11.9809 146.373 12.024 146.383 12.11L147.874 19.0506C147.884 19.0793 147.893 19.0936 147.903 19.0936C147.912 19.0936 147.922 19.0793 147.931 19.0506L149.394 12.11C149.413 12.024 149.466 11.9809 149.552 11.9809H150.656C150.704 11.9809 150.737 11.9953 150.756 12.024C150.785 12.0526 150.795 12.0909 150.785 12.1387L148.591 21.8899C148.581 21.976 148.529 22.019 148.433 22.019H147.358C147.272 22.019 147.219 21.976 147.2 21.8899L145.723 14.7916C145.713 14.7629 145.704 14.7486 145.694 14.7486C145.685 14.7486 145.675 14.7629 145.666 14.7916L144.246 21.8899C144.236 21.976 144.184 22.019 144.088 22.019H143.056Z" fill="white"/>
<path d="M155.415 11.9666C156.227 11.9666 156.878 12.2343 157.365 12.7696C157.862 13.2954 158.111 13.9933 158.111 14.8633C158.111 15.7141 157.862 16.4025 157.365 16.9283C156.878 17.4445 156.227 17.7026 155.415 17.7026H153.493C153.455 17.7026 153.436 17.7218 153.436 17.76V21.8756C153.436 21.9712 153.388 22.019 153.292 22.019H152.203C152.107 22.019 152.059 21.9712 152.059 21.8756V12.11C152.059 12.0144 152.107 11.9666 152.203 11.9666H155.415ZM155.214 16.5984C155.673 16.5984 156.041 16.4455 156.318 16.1396C156.605 15.8241 156.748 15.4082 156.748 14.892C156.748 14.3662 156.605 13.9455 156.318 13.63C156.041 13.3146 155.673 13.1568 155.214 13.1568H153.493C153.455 13.1568 153.436 13.1759 153.436 13.2142V16.5411C153.436 16.5793 153.455 16.5984 153.493 16.5984H155.214Z" fill="white"/>
<path d="M165.104 22.1337C164.492 22.1337 163.952 22.0238 163.483 21.8039C163.025 21.5745 162.666 21.259 162.408 20.8575C162.159 20.4559 162.035 19.9875 162.035 19.4521V19.0649C162.035 18.9693 162.083 18.9215 162.178 18.9215H163.24C163.335 18.9215 163.383 18.9693 163.383 19.0649V19.3804C163.383 19.8489 163.541 20.2265 163.856 20.5133C164.181 20.8001 164.616 20.9435 165.161 20.9435C165.649 20.9435 166.031 20.8144 166.308 20.5563C166.595 20.2886 166.739 19.9397 166.739 19.5095C166.739 19.2227 166.667 18.9741 166.523 18.7638C166.38 18.5535 166.17 18.3575 165.893 18.1759C165.625 17.9942 165.233 17.7648 164.717 17.4875C164.133 17.1816 163.665 16.9091 163.311 16.6701C162.967 16.4311 162.68 16.13 162.451 15.7667C162.221 15.4034 162.107 14.9637 162.107 14.4474C162.107 13.6444 162.37 13.0134 162.895 12.5545C163.421 12.0957 164.119 11.8662 164.989 11.8662C165.591 11.8662 166.122 11.9809 166.581 12.2104C167.04 12.4398 167.393 12.7649 167.642 13.1855C167.9 13.5966 168.029 14.0746 168.029 14.6195V14.9493C168.029 15.0449 167.981 15.0927 167.886 15.0927H166.81C166.715 15.0927 166.667 15.0449 166.667 14.9493V14.6482C166.667 14.1797 166.514 13.7973 166.208 13.501C165.902 13.2046 165.486 13.0564 164.96 13.0564C164.492 13.0564 164.124 13.1759 163.856 13.4149C163.598 13.6539 163.469 13.9933 163.469 14.4331C163.469 14.7199 163.531 14.9637 163.655 15.1644C163.789 15.3652 163.99 15.5564 164.258 15.738C164.525 15.9101 164.922 16.13 165.448 16.3977C166.108 16.7705 166.605 17.0765 166.939 17.3155C167.284 17.5545 167.561 17.846 167.771 18.1902C167.991 18.5344 168.101 18.9502 168.101 19.4378C168.101 20.26 167.828 20.9148 167.284 21.4024C166.748 21.8899 166.022 22.1337 165.104 22.1337Z" fill="white"/>
<path d="M172.544 22.1337C171.942 22.1337 171.406 22.0142 170.938 21.7752C170.479 21.5267 170.121 21.1825 169.862 20.7427C169.614 20.2934 169.49 19.7772 169.49 19.194V14.7916C169.49 13.9025 169.767 13.1951 170.321 12.6693C170.885 12.1339 171.626 11.8662 172.544 11.8662C173.462 11.8662 174.198 12.1291 174.752 12.6549C175.307 13.1807 175.584 13.8786 175.584 14.7486V14.8633C175.584 14.9111 175.57 14.9493 175.541 14.978C175.512 15.0067 175.479 15.021 175.441 15.021L174.351 15.0784C174.255 15.0784 174.207 15.0306 174.207 14.935V14.7199C174.207 14.2228 174.054 13.8212 173.749 13.5153C173.443 13.2094 173.041 13.0564 172.544 13.0564C172.047 13.0564 171.641 13.2094 171.325 13.5153C171.019 13.8212 170.866 14.2228 170.866 14.7199V19.28C170.866 19.7772 171.019 20.1787 171.325 20.4846C171.641 20.7905 172.047 20.9435 172.544 20.9435C173.041 20.9435 173.443 20.7905 173.749 20.4846C174.054 20.1787 174.207 19.7772 174.207 19.28V19.0793C174.207 18.9837 174.255 18.9359 174.351 18.9359L175.441 18.9932C175.536 18.9932 175.584 19.041 175.584 19.1366V19.237C175.584 19.8106 175.455 20.3173 175.197 20.7571C174.948 21.1968 174.595 21.5362 174.136 21.7752C173.677 22.0142 173.146 22.1337 172.544 22.1337Z" fill="white"/>
<path d="M179.976 22.1337C179.364 22.1337 178.824 22.0238 178.356 21.8039C177.897 21.5745 177.538 21.259 177.28 20.8575C177.032 20.4559 176.907 19.9875 176.907 19.4521V19.0649C176.907 18.9693 176.955 18.9215 177.051 18.9215H178.112C178.207 18.9215 178.255 18.9693 178.255 19.0649V19.3804C178.255 19.8489 178.413 20.2265 178.728 20.5133C179.054 20.8001 179.489 20.9435 180.033 20.9435C180.521 20.9435 180.903 20.8144 181.181 20.5563C181.467 20.2886 181.611 19.9397 181.611 19.5095C181.611 19.2227 181.539 18.9741 181.396 18.7638C181.252 18.5535 181.042 18.3575 180.765 18.1759C180.497 17.9942 180.105 17.7648 179.589 17.4875C179.006 17.1816 178.537 16.9091 178.184 16.6701C177.839 16.4311 177.553 16.13 177.323 15.7667C177.094 15.4034 176.979 14.9637 176.979 14.4474C176.979 13.6444 177.242 13.0134 177.768 12.5545C178.294 12.0957 178.991 11.8662 179.861 11.8662C180.464 11.8662 180.994 11.9809 181.453 12.2104C181.912 12.4398 182.266 12.7649 182.514 13.1855C182.772 13.5966 182.901 14.0746 182.901 14.6195V14.9493C182.901 15.0449 182.854 15.0927 182.758 15.0927H181.683C181.587 15.0927 181.539 15.0449 181.539 14.9493V14.6482C181.539 14.1797 181.386 13.7973 181.08 13.501C180.774 13.2046 180.358 13.0564 179.833 13.0564C179.364 13.0564 178.996 13.1759 178.728 13.4149C178.47 13.6539 178.341 13.9933 178.341 14.4331C178.341 14.7199 178.403 14.9637 178.528 15.1644C178.662 15.3652 178.862 15.5564 179.13 15.738C179.398 15.9101 179.794 16.13 180.32 16.3977C180.98 16.7705 181.477 17.0765 181.812 17.3155C182.156 17.5545 182.433 17.846 182.643 18.1902C182.863 18.5344 182.973 18.9502 182.973 19.4378C182.973 20.26 182.701 20.9148 182.156 21.4024C181.62 21.8899 180.894 22.1337 179.976 22.1337Z" fill="white"/>
<path d="M187.244 22.1337C186.632 22.1337 186.092 22.0238 185.624 21.8039C185.165 21.5745 184.806 21.259 184.548 20.8575C184.3 20.4559 184.175 19.9875 184.175 19.4521V19.0649C184.175 18.9693 184.223 18.9215 184.319 18.9215H185.38C185.476 18.9215 185.523 18.9693 185.523 19.0649V19.3804C185.523 19.8489 185.681 20.2265 185.997 20.5133C186.322 20.8001 186.757 20.9435 187.302 20.9435C187.789 20.9435 188.171 20.8144 188.449 20.5563C188.736 20.2886 188.879 19.9397 188.879 19.5095C188.879 19.2227 188.807 18.9741 188.664 18.7638C188.52 18.5535 188.31 18.3575 188.033 18.1759C187.765 17.9942 187.373 17.7648 186.857 17.4875C186.274 17.1816 185.805 16.9091 185.452 16.6701C185.107 16.4311 184.821 16.13 184.591 15.7667C184.362 15.4034 184.247 14.9637 184.247 14.4474C184.247 13.6444 184.51 13.0134 185.036 12.5545C185.562 12.0957 186.259 11.8662 187.129 11.8662C187.732 11.8662 188.262 11.9809 188.721 12.2104C189.18 12.4398 189.534 12.7649 189.782 13.1855C190.04 13.5966 190.17 14.0746 190.17 14.6195V14.9493C190.17 15.0449 190.122 15.0927 190.026 15.0927H188.951C188.855 15.0927 188.807 15.0449 188.807 14.9493V14.6482C188.807 14.1797 188.654 13.7973 188.348 13.501C188.042 13.2046 187.627 13.0564 187.101 13.0564C186.632 13.0564 186.264 13.1759 185.997 13.4149C185.738 13.6539 185.609 13.9933 185.609 14.4331C185.609 14.7199 185.672 14.9637 185.796 15.1644C185.93 15.3652 186.13 15.5564 186.398 15.738C186.666 15.9101 187.063 16.13 187.588 16.3977C188.248 16.7705 188.745 17.0765 189.08 17.3155C189.424 17.5545 189.701 17.846 189.911 18.1902C190.131 18.5344 190.241 18.9502 190.241 19.4378C190.241 20.26 189.969 20.9148 189.424 21.4024C188.888 21.8899 188.162 22.1337 187.244 22.1337Z" fill="white"/>
<path d="M200.222 12.0813C200.27 12.0144 200.328 11.9809 200.394 11.9809H201.484C201.58 11.9809 201.628 12.0287 201.628 12.1243V21.8756C201.628 21.9712 201.58 22.019 201.484 22.019H200.394C200.299 22.019 200.251 21.9712 200.251 21.8756V14.6482C200.251 14.6195 200.242 14.6052 200.222 14.6052C200.203 14.5956 200.189 14.6052 200.179 14.6339L198.473 17.4589C198.425 17.5258 198.368 17.5592 198.301 17.5592H198.071C198.004 17.5592 197.947 17.5258 197.899 17.4589L196.179 14.6625C196.169 14.6339 196.155 14.6243 196.135 14.6339C196.116 14.6339 196.107 14.6482 196.107 14.6769V21.8756C196.107 21.9712 196.059 22.019 195.963 22.019H194.874C194.778 22.019 194.73 21.9712 194.73 21.8756V12.1243C194.73 12.0287 194.778 11.9809 194.874 11.9809H195.963C196.03 11.9809 196.088 12.0144 196.135 12.0813L198.143 15.3222C198.153 15.3317 198.167 15.3365 198.186 15.3365C198.205 15.3365 198.22 15.3317 198.229 15.3222L200.222 12.0813Z" fill="white"/>
<path d="M208.698 22.019C208.612 22.019 208.559 21.976 208.54 21.8899L208.11 20.2265C208.101 20.1978 208.077 20.1835 208.038 20.1835H204.869C204.821 20.1835 204.798 20.1978 204.798 20.2265L204.382 21.8899C204.372 21.976 204.32 22.019 204.224 22.019H203.105C203.058 22.019 203.019 22.0047 202.991 21.976C202.972 21.9473 202.967 21.9091 202.976 21.8613L205.629 12.11C205.648 12.024 205.701 11.9809 205.787 11.9809H207.135C207.221 11.9809 207.274 12.024 207.293 12.11L209.96 21.8613L209.974 21.9043C209.974 21.9808 209.927 22.019 209.831 22.019H208.698ZM205.099 19.0363C205.089 19.0458 205.089 19.0602 205.099 19.0793C205.118 19.0888 205.137 19.0936 205.156 19.0936H207.752C207.771 19.0936 207.785 19.0888 207.795 19.0793C207.814 19.0602 207.819 19.0458 207.809 19.0363L206.475 13.8451C206.466 13.826 206.456 13.8165 206.447 13.8165C206.437 13.8165 206.428 13.826 206.418 13.8451L205.099 19.0363Z" fill="white"/>
<path d="M216.301 12.1243C216.301 12.0287 216.349 11.9809 216.445 11.9809H217.535C217.63 11.9809 217.678 12.0287 217.678 12.1243V21.8756C217.678 21.9712 217.63 22.019 217.535 22.019H216.387C216.301 22.019 216.244 21.9855 216.215 21.9186L212.759 14.9637C212.74 14.9446 212.721 14.935 212.702 14.935C212.692 14.935 212.688 14.9493 212.688 14.978L212.702 21.8756C212.702 21.9712 212.654 22.019 212.558 22.019H211.469C211.373 22.019 211.325 21.9712 211.325 21.8756V12.1243C211.325 12.0287 211.373 11.9809 211.469 11.9809H212.616C212.702 11.9809 212.759 12.0144 212.788 12.0813L216.23 19.0363C216.249 19.0554 216.263 19.0649 216.273 19.0649C216.292 19.0649 216.301 19.0506 216.301 19.0219V12.1243Z" fill="white"/>
<path d="M224.761 22.019C224.675 22.019 224.622 21.976 224.603 21.8899L224.173 20.2265C224.163 20.1978 224.139 20.1835 224.101 20.1835H220.932C220.884 20.1835 220.86 20.1978 220.86 20.2265L220.444 21.8899C220.435 21.976 220.382 22.019 220.287 22.019H219.168C219.12 22.019 219.082 22.0047 219.053 21.976C219.034 21.9473 219.029 21.9091 219.039 21.8613L221.692 12.11C221.711 12.024 221.764 11.9809 221.85 11.9809H223.198C223.284 11.9809 223.336 12.024 223.355 12.11L226.023 21.8613L226.037 21.9043C226.037 21.9808 225.989 22.019 225.894 22.019H224.761ZM221.161 19.0363C221.152 19.0458 221.152 19.0602 221.161 19.0793C221.18 19.0888 221.2 19.0936 221.219 19.0936H223.814C223.833 19.0936 223.848 19.0888 223.857 19.0793C223.876 19.0602 223.881 19.0458 223.872 19.0363L222.538 13.8451C222.528 13.826 222.519 13.8165 222.509 13.8165C222.5 13.8165 222.49 13.826 222.481 13.8451L221.161 19.0363Z" fill="white"/>
<path d="M229.988 22.1337C229.08 22.1337 228.349 21.8708 227.794 21.345C227.24 20.8097 226.962 20.107 226.962 19.237V14.7629C226.962 13.8929 227.24 13.1951 227.794 12.6693C228.349 12.1339 229.08 11.8662 229.988 11.8662C230.59 11.8662 231.121 11.9857 231.58 12.2247C232.039 12.4542 232.392 12.784 232.641 13.2142C232.899 13.6444 233.028 14.1319 233.028 14.6769V15.0641C233.028 15.1597 232.98 15.2075 232.885 15.2075H231.795C231.699 15.2075 231.652 15.1597 231.652 15.0641V14.6769C231.652 14.1989 231.499 13.8117 231.193 13.5153C230.896 13.2094 230.495 13.0564 229.988 13.0564C229.491 13.0564 229.089 13.2142 228.784 13.5297C228.478 13.8356 228.325 14.2371 228.325 14.7342V19.2657C228.325 19.7628 228.478 20.1691 228.784 20.4846C229.099 20.7905 229.51 20.9435 230.017 20.9435C230.514 20.9435 230.911 20.8001 231.207 20.5133C231.503 20.2265 231.652 19.8393 231.652 19.3517V18.0181C231.652 17.9799 231.632 17.9608 231.594 17.9608H230.088C229.993 17.9608 229.945 17.913 229.945 17.8174V16.9283C229.945 16.8327 229.993 16.7849 230.088 16.7849H232.885C232.98 16.7849 233.028 16.8327 233.028 16.9283V19.1653C233.028 20.0927 232.751 20.8192 232.196 21.345C231.652 21.8708 230.915 22.1337 229.988 22.1337Z" fill="white"/>
<path d="M240.602 13.0278C240.602 13.1234 240.554 13.1712 240.459 13.1712H236.3C236.262 13.1712 236.243 13.1903 236.243 13.2285V16.326C236.243 16.3642 236.262 16.3833 236.3 16.3833H239.039C239.135 16.3833 239.182 16.4311 239.182 16.5267V17.4302C239.182 17.5258 239.135 17.5736 239.039 17.5736H236.3C236.262 17.5736 236.243 17.5927 236.243 17.6309V20.7714C236.243 20.8097 236.262 20.8288 236.3 20.8288H240.459C240.554 20.8288 240.602 20.8766 240.602 20.9722V21.8756C240.602 21.9712 240.554 22.019 240.459 22.019H235.009C234.914 22.019 234.866 21.9712 234.866 21.8756V12.1243C234.866 12.0287 234.914 11.9809 235.009 11.9809H240.459C240.554 11.9809 240.602 12.0287 240.602 12.1243V13.0278Z" fill="white"/>
<path d="M247.093 22.019C247.017 22.019 246.964 21.9808 246.935 21.9043L245.272 17.6309C245.262 17.6023 245.243 17.5879 245.215 17.5879H243.68C243.642 17.5879 243.623 17.607 243.623 17.6453V21.8756C243.623 21.9712 243.575 22.019 243.479 22.019H242.39C242.294 22.019 242.246 21.9712 242.246 21.8756V12.1243C242.246 12.0287 242.294 11.9809 242.39 11.9809H245.602C246.405 11.9809 247.05 12.2438 247.538 12.7696C248.025 13.2954 248.269 13.9838 248.269 14.8346C248.269 15.4751 248.121 16.0248 247.824 16.4837C247.528 16.9426 247.122 17.2581 246.606 17.4302C246.577 17.4397 246.567 17.4636 246.577 17.5019L248.326 21.8469L248.341 21.9043C248.341 21.9808 248.298 22.019 248.212 22.019H247.093ZM243.68 13.1712C243.642 13.1712 243.623 13.1903 243.623 13.2285V16.4407C243.623 16.4789 243.642 16.4981 243.68 16.4981H245.415C245.855 16.4981 246.209 16.3499 246.476 16.0535C246.754 15.7476 246.892 15.3461 246.892 14.849C246.892 14.3423 246.758 13.936 246.491 13.63C246.223 13.3241 245.865 13.1712 245.415 13.1712H243.68Z" fill="white"/>
</svg>
