<svg xmlns="http://www.w3.org/2000/svg" version="1.1" xmlns:xlink="http://www.w3.org/1999/xlink" width="512" height="512" x="0" y="0" viewBox="0 0 64 64" style="enable-background:new 0 0 512 512" xml:space="preserve" class=""><g><path d="M56.28 35.132c-.718-3.207-4.076-5.28-4.208-5.361a43.833 43.833 0 0 1-2.67-1.973c5.217-.86 4.765-7.248 2.427-11.158C46.92 7.078 33.454 1.31 23.04 5.259c-9.733 3.773-11.665 13.252-12.05 17.147-.089 2.072-1.798 4.536-2.802 6.303-2.574 5.16 3.895 7.501 8.134 6.484a19.912 19.912 0 0 0 10.339-1.507 24.458 24.458 0 0 1-3.015 10.177 18.024 18.024 0 0 0-1.477 3.065c-1.001 2.873-2.043 7.8 1.174 10.784a14.22 14.22 0 0 1 2.761-11.462c3.045-3.57 3.703-9.823 3.845-12.342a26.559 26.559 0 0 0-.982-8.841 25.985 25.985 0 0 1 3.136-2.206A10.275 10.275 0 0 1 34.612 27a22.957 22.957 0 0 0-2.884 1.325c.091.668.172 1.396.223 2.185a22.724 22.724 0 0 1 3.247-1.568 23.671 23.671 0 0 1 .263 9.135 17.369 17.369 0 0 0 .94 8.933c1.362 3.56 5.716 7.026 9.379 5.15a4.766 4.766 0 0 0 1.8-3.218.13.13 0 0 0-.08-.131c-7.578-2.701-7.669-8.367-7.669-8.417a37.005 37.005 0 0 0-1.163-12.474 18.576 18.576 0 0 1 3.409-.435 15.436 15.436 0 0 1-1.558-1.922 23.245 23.245 0 0 0-2.519.425 13.637 13.637 0 0 0-2.863-4.603 16.048 16.048 0 0 1 5.392-1.153 8.437 8.437 0 0 0 .9 2.913c1.666 3.367 4.937 5.464 8.296 7.699a11.232 11.232 0 0 1 4.785 9.702 5.613 5.613 0 0 0 1.77-5.413zm-38.998-15.63a1.01 1.01 0 0 1-1.942-.556 14.849 14.849 0 0 1 9.003-10.278 1.01 1.01 0 0 1 .739 1.882 12.733 12.733 0 0 0-7.8 8.953zm9.51 11.958a20.125 20.125 0 0 1-5.797 1.69c2.22-1.516 3.682-4.143 5.624-5.939a29.86 29.86 0 0 1 .172 4.25zm21.942-4.198c-3.703-3.116-4.856-5.423-5.14-6.88 3.152.572 6.83 2.642 5.14 6.88z" fill="#ffffff" opacity="1" data-original="#000000" class=""></path><path d="M50.09 33.898a2.624 2.624 0 0 0-.304-.334c.334 1.71-.101 4.38-3.703 7.709a.132.132 0 0 0 .02.222 6.998 6.998 0 0 0 6.303.456 5.247 5.247 0 0 1 0-.87 8.577 8.577 0 0 0-2.317-7.183zM29.492 55.365a5.815 5.815 0 0 1-3.51-4.957 12.937 12.937 0 0 0-.142 8.821 11.96 11.96 0 0 0 2.975.749c3.003.352 3.186-3.621.677-4.613z" fill="#ffffff" opacity="1" data-original="#000000" class=""></path></g></svg>